<svg width="40" height="40" viewBox="0 0 40 40" fill="none" xmlns="http://www.w3.org/2000/svg">
<path fill-rule="evenodd" clip-rule="evenodd" d="M9.78157 10H12.9416H25.5916L26.344 21.1992H25.3498L24.6616 11H22.4416V11.63C22.4416 12.2538 22.3187 12.8714 22.08 13.4477C21.8413 14.024 21.4914 14.5477 21.0503 14.9888C20.6093 15.4298 20.0856 15.7797 19.5093 16.0184C18.933 16.2571 18.3154 16.38 17.6916 16.38C17.0678 16.38 16.4501 16.2571 15.8738 16.0184C15.2975 15.7797 14.7739 15.4298 14.3328 14.9888C13.8917 14.5477 13.5419 14.024 13.3031 13.4477C13.0644 12.8714 12.9416 12.2538 12.9416 11.63V11H10.7216L10.0116 21.67C9.97459 22.2167 10.0503 22.7652 10.2341 23.2814C10.4178 23.7976 10.7057 24.2706 11.0798 24.671C11.4539 25.0713 11.9063 25.3906 12.4089 25.6089C12.9115 25.8272 13.4536 25.9399 14.0016 25.94H21.3816C21.6543 25.9406 21.9256 25.9134 22.1914 25.859V26.8741C21.9244 26.9179 21.6535 26.94 21.3816 26.94H14.0016C13.3162 26.9402 12.6381 26.7995 12.0094 26.5266C11.3806 26.2538 10.8147 25.8546 10.3468 25.3538C9.87882 24.853 9.51882 24.2614 9.28913 23.6156C9.05944 22.9699 8.96497 22.2838 9.01157 21.6L9.78157 10ZM13.9416 11H21.4416V11.63C21.4416 12.6246 21.0465 13.5784 20.3432 14.2816C19.64 14.9849 18.6861 15.38 17.6916 15.38C16.697 15.38 15.7432 14.9849 15.0399 14.2816C14.3367 13.5784 13.9416 12.6246 13.9416 11.63V11Z" fill="currentColor"/>
<path fill-rule="evenodd" clip-rule="evenodd" d="M24.1914 30.1992C28.0574 30.1992 31.1914 27.0652 31.1914 23.1992C31.1914 19.3332 28.0574 16.1992 24.1914 16.1992C20.3254 16.1992 17.1914 19.3332 17.1914 23.1992C17.1914 27.0652 20.3254 30.1992 24.1914 30.1992ZM24.7164 19.955C24.7164 19.665 24.4813 19.43 24.1914 19.43C23.9015 19.43 23.6664 19.665 23.6664 19.955V22.6742H20.9606C20.6707 22.6742 20.4356 22.9093 20.4356 23.1992C20.4356 23.4892 20.6707 23.7242 20.9606 23.7242H23.6664L23.6529 26.43C23.6529 26.7199 23.888 26.955 24.1779 26.955C24.4679 26.955 24.7029 26.7199 24.7029 26.43L24.7299 23.7377L27.4222 23.7242C27.7121 23.7242 27.9472 23.4892 27.9472 23.1992C27.9472 22.9093 27.7121 22.6742 27.4222 22.6742H24.7164V19.955Z" fill="currentColor"/>
</svg>
